<svg xmlns="http://www.w3.org/2000/svg" width="16" height="16" fill="none" viewBox="0 0 16 16"><path fill="#fff" d="M0 0h16v16H0z"/><mask id="a" fill="#fff"><path fill-rule="evenodd" d="m3.058 10.423-.01-.02C1.945 8.156 1.96 4.918 2.012 3.719a.493.493 0 0 1 .501-.464C5.969 3.247 7.953 2.028 7.996 2h.001c.044.028 2.028 1.247 5.483 1.255.266 0 .49.198.502.464.05 1.2.066 4.437-1.036 6.684l-.01.02c-.062.108-.633 1.092-1.455 1.732l-.002.001c-.035.027-1.265.956-3.482 1.92v.001c-2.217-.965-3.447-1.894-3.482-1.92l-.003-.002c-.822-.64-1.392-1.624-1.454-1.732" clip-rule="evenodd"/></mask><path fill="#EE4D2D" d="m4.515 12.156.604-.796zm-.003-.002-.614.79zm3.484 1.923.4-.917zm0 0 .398.918zm0 0-.398.917zm0 0 .4.917zm.001 0 .398-.918zm0 0-.399-.917zm3.484-1.922-.614-.79zm-.002.001.605.797zm1.467-1.753.898.44zm-.01.02-.871-.493zm1.046-6.704.999-.042zM7.997 2l.527-.85zm0 0 .527.85zm-4.95 8.403-.897.44zm.011.02.87-.493zM1.013 3.677c-.027.628-.044 1.789.09 3.093.132 1.29.42 2.796 1.047 4.073l1.795-.881c-.476-.97-.73-2.207-.853-3.396a20 20 0 0 1-.081-2.806zM7.469 1.15c.062-.039-1.741 1.096-4.958 1.104l.004 2C6.21 4.246 8.374 2.943 8.524 2.85zM6.996 2h2zm2.001 0h-2zm4.486.254c-3.217-.008-5.02-1.143-4.959-1.104L7.47 2.85c.15.093 2.314 1.396 6.008 1.405zm.36 8.588c.627-1.277.915-2.782 1.048-4.073a22 22 0 0 0 .09-3.093l-1.998.083c.024.572.04 1.63-.082 2.806-.122 1.19-.377 2.426-.853 3.396zm-1.748 2.1c.99-.769 1.64-1.905 1.71-2.027l-1.74-.986c-.053.094-.543.926-1.198 1.435zm-3.699 2.05c2.306-1.003 3.605-1.977 3.688-2.04l-1.21-1.593c.013-.01-1.149.874-3.276 1.8zm-.798.001H7.6l.796-1.835zm.796 0-.797-1.834H7.6zM3.91 12.954c.083.063 1.382 1.037 3.687 2.04l.798-1.833c-2.127-.926-3.289-1.81-3.276-1.8zm-1.722-2.037c.07.122.72 1.258 1.71 2.028l1.228-1.579c-.655-.509-1.144-1.34-1.198-1.435zm2.931.444.007.005.002.001h-.002l-1.228 1.578.003.002.009.007zm3.877 2.717a1 1 0 0 0-.6-.917l-.799 1.834a1 1 0 0 1-.6-.917zM7.6 13.159a1 1 0 0 1 1.397.918h-2a1 1 0 0 0 1.398.918zm.796 0a1 1 0 0 0-.797 0l.797 1.835a1 1 0 0 1-.797 0zm-1.398.918a1 1 0 0 1 1.398-.918L7.6 14.995a1 1 0 0 0 1.398-.918zm.601-.917a1 1 0 0 0-.6.917h2a1 1 0 0 1-.602.917zm3.27-1.795-.002.001zl.006-.006 1.21 1.593.009-.007.002-.002zm1.18-1.403.017-.032 1.74.986.039-.073zm1.43-5.707a.51.51 0 0 1-.495-.495l1.998-.083c-.036-.848-.747-1.42-1.498-1.422zM6.998 2c0-.044.003-.084.002-.073l-.003.05a1 1 0 0 0 .473.873l1.055-1.7a1 1 0 0 1 .472.874c0 .027-.002.048-.002.05-.001.01.002-.03.002-.074zm1.528.849A1 1 0 0 1 6.997 2h2a1 1 0 0 0-1.53-.849zm-1.058 0c.18.113.351.135.376.14a1 1 0 0 0 .306 0c.024-.004.195-.027.376-.14L7.468 1.15a1 1 0 0 1 1.058 0zM8.996 2a1 1 0 0 1-1.528.849L8.526 1.15a1 1 0 0 0-1.53.85zm-.472.85a1 1 0 0 0 .47-.922c-.001-.012.002.028.002.072h-2c0 .044.004.085.003.073 0-.001-.002-.022-.002-.049a1 1 0 0 1 .472-.873zM2.15 10.843l.038.073 1.74-.986.017.032zm.86-7.083a.51.51 0 0 1-.495.495l-.004-2c-.751.001-1.463.574-1.498 1.422z" mask="url(#a)"/><path stroke="#EE4D2D" stroke-linecap="round" d="m5.25 7.75 1.646 1.646a.5.5 0 0 0 .708 0L10.75 6.25"/></svg>